# xmcd
#
# Track frame offsets:
#	150
#	15592
#	26608
#	43465
#	55338
#	77592
#	94703
#	111204
#	126456
#	148524
#	174101
#	198106
#	226789
#	250996
#	269168
#
# Disc length: 3887 seconds
#
# Revision: 1
# Processed by: cddbd v1.5.1PL0 Copyright (c) Steve Scherf et al.
# Submitted via: audiograbber 1.83.01
#
DISCID=cb0f2d0f
DTITLE=30 lovsångsklassiker - Tid att tillbe CD2
DYEAR=2005
DGENRE=Contemporary ChristianChristian Rock
TTITLE0=Du är mäktig 3,25
TTITLE1=Han la en ny sång 2,26
TTITLE2=Jesus, tack för Golgata kors 3,44
TTITLE3=Vilken mäktig Gud vi har 2,38
TTITLE4=Allt till Jesus 4,56
TTITLE5=Vi är här för att prisa ditt namn 3,48
TTITLE6=Helig mark 3,40
TTITLE7=Du omsluter mig på alla sidor 3,23
TTITLE8=Med evig kärlek har du älskat oss 4,54
TTITLE9=Kom låt oss höja glädjerop - Det flödar glädje 5,41
TTITLE10=En sak Gud 5,20
TTITLE11=Värdigt är Guds namn 6,22
TTITLE12=Jag var född att lova dig - Jag tillber dig allsmäktig Gud 5,22
TTITLE13=Din kärlek är störst - Kom med din härlighet 4,02
TTITLE14=Välsignelsen 4,58
EXTD=
EXTT0=
EXTT1=
EXTT2=
EXTT3=
EXTT4=
EXTT5=
EXTT6=
EXTT7=
EXTT8=
EXTT9=
EXTT10=
EXTT11=
EXTT12=
EXTT13=
EXTT14=
PLAYORDER=
